# xmcd
#
# Track frame offsets: 
#        150
#        3479
#        22189
#        26418
#        43438
#        58714
#        78227
#        95361
#        98379
#        113863
#        117962
#        136727
#        140235
#
# Disc length: 2101 seconds
#
# Revision: 0
# Processed by: cddbd v1.5.2PL0 Copyright (c) Steve Scherf et al.
# Submitted via: ExactAudioCopy v0.99pb4
#
DISCID=a908330d
DTITLE=Adrienne Townes - So Natural
DYEAR=2008
DGENRE=R&B
TTITLE0=The Chameleon (Intro)
TTITLE1=The Chameleon
TTITLE2=Thinking Of You (Intro)
TTITLE3=Thinking Of You
TTITLE4=So Natural
TTITLE5=Words To Say
TTITLE6=Betrayal
TTITLE7=The Way (Intro)
TTITLE8=The Way
TTITLE9=The Screen (Intro)
TTITLE10=The Screen
TTITLE11=Valentine's Wish (Intro)
TTITLE12=Valentine's Wish
EXTD=
EXTT0=
EXTT1=
EXTT2=
EXTT3=
EXTT4=
EXTT5=
EXTT6=
EXTT7=
EXTT8=
EXTT9=
EXTT10=
EXTT11=
EXTT12=
PLAYORDER=
